<svg width="24" height="24" viewBox="0 0 24 24" fill="none" xmlns="http://www.w3.org/2000/svg">
<path fill-rule="evenodd" clip-rule="evenodd" d="M17 3H15V9H17V7H20C20.5523 7 21 6.55228 21 6C21 5.44772 20.5523 5 20 5H17V3ZM3 6C3 5.44772 3.44772 5 4 5H12C12.5523 5 13 5.44772 13 6C13 6.55228 12.5523 7 12 7H4C3.44772 7 3 6.55228 3 6ZM3 18C3 17.4477 3.44772 17 4 17H9C9.55228 17 10 17.4477 10 18C10 18.5523 9.55228 19 9 19H4C3.44772 19 3 18.5523 3 18ZM12 11C11.4477 11 11 11.4477 11 12C11 12.5523 11.4477 13 12 13H20C20.5523 13 21 12.5523 21 12C21 11.4477 20.5523 11 20 11H12ZM21 18C21 17.4477 20.5523 17 20 17H14V15H12V21H14V19H20C20.5523 19 21 18.5523 21 18ZM3 12C3 11.4477 3.44772 11 4 11H7V9H9V15H7V13H4C3.44772 13 3 12.5523 3 12Z" fill="#FFFDD0"/>
</svg>
